<svg width="128" height="128" version="1.1" viewBox="0 0 33.867 33.867" xmlns="http://www.w3.org/2000/svg" xmlns:xlink="http://www.w3.org/1999/xlink">
				<defs>
								<linearGradient id="a" x1="1.1851" x2="11.509" y1="16.933" y2="16.933" gradientTransform="translate(1.5931 .029268)" gradientUnits="userSpaceOnUse">
												<stop stop-color="#f6bf2a" offset="0"/>
												<stop stop-color="#ed7421" offset="1"/>
								</linearGradient>
								<linearGradient id="c" x1="20.917" x2="13.509" y1="17.992" y2="15.081" gradientTransform="translate(.51401 .39688)" gradientUnits="userSpaceOnUse">
												<stop stop-color="#a835af" offset="0"/>
												<stop stop-color="#fe019a" offset="1"/>
								</linearGradient>
								<linearGradient id="b" x1="23.599" x2="32.198" y1="10.06" y2="12.706" gradientTransform="translate(-1.4402 5.5501)" gradientUnits="userSpaceOnUse">
												<stop stop-color="#00ffce" offset="0"/>
												<stop stop-color="#00f577" offset="1"/>
								</linearGradient>
								<linearGradient id="d" x1=".8599" x2="7.2766" y1="5.2917" y2="5.2917" gradientTransform="translate(22.159 10.65)" gradientUnits="userSpaceOnUse">
												<stop stop-color="#fe019a" offset="0"/>
												<stop stop-color="#a835af" offset="1"/>
								</linearGradient>
								<filter id="e" x="-.048" y="-.048" width="1.096" height="1.096" color-interpolation-filters="sRGB">
												<feGaussianBlur stdDeviation="2.24"/>
								</filter>
				</defs>
				<path transform="matrix(.2759 0 0 .27589 12.702 12.701)" d="m-8.6615-40.661h48c17.728 0 32 14.272 32 32v48c0 17.728-14.272 32-32 32h-48c-17.728 0-32-14.272-32-32v-48c0-17.728 14.272-32 32-32z" fill="#220054" filter="url(#e)" stroke-width="0" style="paint-order:markers stroke fill"/>
				<text x="2.1800568" y="18.758183" fill="url(#a)" font-family="sans-serif" font-size="5.6444px" letter-spacing="0px" stroke-width=".26458" word-spacing="0px" style="line-height:1.25" xml:space="preserve"><tspan x="2.1800568" y="18.758183" fill="url(#a)" font-family="Sans" font-size="5.6444px" font-weight="bold" stroke-width=".26458" style="font-variant-caps:normal;font-variant-east-asian:normal;font-variant-ligatures:normal;font-variant-numeric:normal">&lt;/&gt;</tspan></text>
				<path d="m19.05 14.155h-1.3229l1.3229 1.3229h-5.0271v1.0583h7.4083zm-5.0271 3.175 2.3812 2.3812h1.3229l-1.3229-1.3229h5.0271v-1.0583z" fill="url(#c)" style="paint-order:stroke fill markers"/>
				<path d="m25.664 10.649c-0.47066 0-0.85938 0.38871-0.85938 0.85938v1.5879c0 0.47066 0.38871 0.85938 0.85938 0.85938h1.5879c0.47066 0 0.85938-0.38871 0.85938-0.85938v-1.5879c0-0.47066-0.38871-0.85938-0.85938-0.85938zm0 0.66211h1.5879c0.11565 0 0.19727 0.08161 0.19727 0.19727v1.5879c0 0.11565-0.08161 0.19922-0.19727 0.19922h-1.5879c-0.11566 0-0.19922-0.08357-0.19922-0.19922v-1.5879c0-0.11565 0.08357-0.19727 0.19922-0.19727zm-2.6465 3.3066c-0.47066 0-0.85938 0.38871-0.85938 0.85938v1.5879c0 0.47066 0.38871 0.85938 0.85938 0.85938h1.5879c0.47066 0 0.85938-0.38871 0.85938-0.85938v-1.5879c0-0.47066-0.38871-0.85938-0.85938-0.85938zm5.293 0c-0.47066 0-0.86133 0.38871-0.86133 0.85938v1.5879c0 0.47066 0.39067 0.85938 0.86133 0.85938h1.5859c0.47066 0 0.86133-0.38871 0.86133-0.85938v-1.5879c0-0.47066-0.39067-0.85938-0.86133-0.85938zm-5.293 0.66211h1.5879c0.11565 0 0.19922 0.08161 0.19922 0.19727v1.5879c0 0.11565-0.08357 0.19922-0.19922 0.19922h-1.5879c-0.11565 0-0.19726-0.08357-0.19726-0.19922v-1.5879c0-0.11565 0.08161-0.19727 0.19726-0.19727zm5.293 0h1.5859c0.11566 0 0.19922 0.08161 0.19922 0.19727v1.5879c0 0.11565-0.08356 0.19922-0.19922 0.19922h-1.5859c-0.11565 0-0.19922-0.08357-0.19922-0.19922v-1.5879c0-0.11565 0.08356-0.19727 0.19922-0.19727zm-5.293 4.6289c-0.47066 0-0.85938 0.39067-0.85938 0.86133v1.5859c0 0.47066 0.38871 0.86133 0.85938 0.86133h1.5879c0.47066 0 0.85938-0.39067 0.85938-0.86133v-1.5859c0-0.47066-0.38871-0.86133-0.85938-0.86133zm4.3652 0c-0.47066 0-0.85938 0.39067-0.85938 0.86133v1.5859c0 0.47066 0.38871 0.86133 0.85938 0.86133h1.5879c0.47066 0 0.86133-0.39067 0.86133-0.86133v-1.5859c0-0.47066-0.39067-0.86133-0.86133-0.86133zm-4.3652 0.66211h1.5879c0.11565 0 0.19922 0.08357 0.19922 0.19922v1.5859c0 0.11565-0.08357 0.19922-0.19922 0.19922h-1.5879c-0.11565 0-0.19726-0.08357-0.19726-0.19922v-1.5859c0-0.11565 0.08161-0.19922 0.19726-0.19922zm4.3652 0h1.5879c0.11565 0 0.19922 0.08357 0.19922 0.19922v1.5859c0 0.11565-0.08357 0.19922-0.19922 0.19922h-1.5879c-0.11565 0-0.19727-0.08357-0.19727-0.19922v-1.5859c0-0.11565 0.08161-0.19922 0.19727-0.19922z" color="#000000" fill="url(#b)" style="paint-order:stroke fill markers"/>
				<path d="m24.343 11.973a0.33076 0.33076 0 0 0-0.01809 0.0021l-0.05426 0.0015a0.33076 0.33076 0 0 0-0.03359 0.0041l-0.05271 0.0077a0.33076 0.33076 0 0 0-0.03101 0.0057l-0.05064 0.01395a0.33076 0.33076 0 0 0-0.03152 0.0098l-0.04858 0.01757a0.33076 0.33076 0 0 0-0.02946 0.01137l-0.04702 0.02377a0.33076 0.33076 0 0 0-0.02894 0.01344l-0.04341 0.02739a0.33076 0.33076 0 0 0-0.02532 0.01757l-0.04082 0.03152a0.33076 0.33076 0 0 0-0.02532 0.01912l-0.03721 0.03514a0.33076 0.33076 0 0 0-0.0217 0.0217l-0.03514 0.03721a0.33076 0.33076 0 0 0-0.01912 0.02532l-0.03152 0.04082a0.33076 0.33076 0 0 0-0.01757 0.02532l-0.02739 0.04341a0.33076 0.33076 0 0 0-0.01344 0.02894l-0.02377 0.04702a0.33076 0.33076 0 0 0-0.01137 0.02946l-0.01757 0.04858a0.33076 0.33076 0 0 0-0.0098 0.03152l-0.01395 0.05064a0.33076 0.33076 0 0 0-0.0057 0.03101l-0.0078 0.05271a0.33076 0.33076 0 0 0-0.0041 0.03359l-0.0015 0.05426a0.33076 0.33076 0 0 0-0.0021 0.01809v1.7844h0.66197v-1.7766l0.0021-0.02946 0.0021-0.01964 0.0057-0.01964 0.0057-0.01757 0.0077-0.01757 0.0098-0.0155 0.01189-0.0155 0.01344-0.01395 0.01395-0.01344 0.0155-0.01189 0.0155-0.0098 0.01757-0.0077 0.01757-0.0057 0.01964-0.0057 0.01964-0.0021 0.02946-0.0021h0.45424v-0.66198zm3.7688 0v0.66198h0.45424l0.02946 0.0021 0.01964 0.0021 0.01964 0.0057 0.01757 0.0057 0.01757 0.0077 0.0155 0.0098 0.0155 0.01189 0.01395 0.01344 0.01344 0.01395 0.01189 0.0155 0.0098 0.0155 0.0077 0.01757 0.0057 0.01757 0.0057 0.01964 0.0021 0.01964 0.0021 0.02946v1.7766h0.66198v-1.7844a0.33076 0.33076 0 0 0-0.0021-0.01809l-0.0016-0.05426a0.33076 0.33076 0 0 0-0.0041-0.03359l-0.0077-0.05271a0.33076 0.33076 0 0 0-0.0057-0.03101l-0.01395-0.05064a0.33076 0.33076 0 0 0-0.0098-0.03152l-0.01757-0.04858a0.33076 0.33076 0 0 0-0.01137-0.02946l-0.02377-0.04702a0.33076 0.33076 0 0 0-0.01344-0.02894l-0.02739-0.04341a0.33076 0.33076 0 0 0-0.01757-0.02532l-0.03152-0.04082a0.33076 0.33076 0 0 0-0.01912-0.02532l-0.03514-0.03721a0.33076 0.33076 0 0 0-0.0217-0.0217l-0.03721-0.03514a0.33076 0.33076 0 0 0-0.02532-0.01912l-0.04082-0.03152a0.33076 0.33076 0 0 0-0.02532-0.01757l-0.04341-0.02739a0.33076 0.33076 0 0 0-0.02894-0.01344l-0.04703-0.02377a0.33076 0.33076 0 0 0-0.02946-0.01137l-0.04858-0.01757a0.33076 0.33076 0 0 0-0.03152-0.0098l-0.05064-0.01395a0.33076 0.33076 0 0 0-0.03101-0.0057l-0.05271-0.0077a0.33076 0.33076 0 0 0-0.03359-0.0041l-0.05426-0.0015a0.33076 0.33076 0 0 0-0.01809-0.0021zm-5.0932 5.9531v1.9844h0.66146v-1.9844zm0.92501 0v0.46199a0.33076 0.33076 0 0 0 0.0021 0.01809l0.0021 0.05426a0.33076 0.33076 0 0 0 0.0041 0.03359l0.0078 0.05271a0.33076 0.33076 0 0 0 0.0057 0.03101l0.01395 0.05064a0.33076 0.33076 0 0 0 0.0093 0.03152l0.01757 0.04858a0.33076 0.33076 0 0 0 0.01189 0.02946l0.02325 0.04703a0.33076 0.33076 0 0 0 0.01602 0.02894l0.02532 0.04341a0.33076 0.33076 0 0 0 0.01757 0.02532l0.03101 0.04082a0.33076 0.33076 0 0 0 0.01964 0.02532l0.03514 0.03721a0.33076 0.33076 0 0 0 0.0217 0.0217l0.03721 0.03514a0.33076 0.33076 0 0 0 0.02532 0.01912l0.04082 0.03152a0.33076 0.33076 0 0 0 0.02532 0.01757l0.04496 0.02739a0.33076 0.33076 0 0 0 0.02739 0.01344l0.04703 0.02377a0.33076 0.33076 0 0 0 0.02894 0.01137l0.04909 0.01757a0.33076 0.33076 0 0 0 0.03101 0.0098l0.05116 0.01395a0.33076 0.33076 0 0 0 0.03307 0.0057l0.05064 0.0078a0.33076 0.33076 0 0 0 0.03307 0.0041l0.05478 0.0015a0.33076 0.33076 0 0 0 0.01757 0.0021h2.4024l0.01964 0.0041 0.01757 0.0036 0.01964 0.0083 0.0155 0.0078 0.01757 0.0098 0.0155 0.01137 0.01395 0.01189 0.01137 0.0155 0.01189 0.01395 0.0098 0.01757 0.0078 0.0155 0.0077 0.01964 0.0041 0.01757 0.0036 0.01912v0.48524h0.66198v-0.46354a0.33076 0.33076 0 0 0 5.17e-4 -0.0016 0.33076 0.33076 0 0 0 0-5.17e-4 0.33076 0.33076 0 0 0 0-5.17e-4 0.33076 0.33076 0 0 0 0-5.16e-4 0.33076 0.33076 0 0 0 0-5.17e-4 0.33076 0.33076 0 0 0 0-5.17e-4 0.33076 0.33076 0 0 0 0-5.17e-4 0.33076 0.33076 0 0 0 0-5.16e-4 0.33076 0.33076 0 0 0 0-5.17e-4 0.33076 0.33076 0 0 0 0-5.17e-4 0.33076 0.33076 0 0 0 0-5.17e-4 0.33076 0.33076 0 0 0 0-5.17e-4 0.33076 0.33076 0 0 0 0-5.16e-4 0.33076 0.33076 0 0 0 0-5.17e-4 0.33076 0.33076 0 0 0 0-5.17e-4 0.33076 0.33076 0 0 0 0-5.17e-4 0.33076 0.33076 0 0 0 0-5.16e-4 0.33076 0.33076 0 0 0 0-5.17e-4 0.33076 0.33076 0 0 0 0-5.17e-4 0.33076 0.33076 0 0 0 0-5.17e-4 0.33076 0.33076 0 0 0 0-5.16e-4 0.33076 0.33076 0 0 0 0-5.17e-4 0.33076 0.33076 0 0 0 0-5.17e-4 0.33076 0.33076 0 0 0-5.17e-4 -0.0026l-0.0016-0.05478a0.33076 0.33076 0 0 0-0.0041-0.03307l-0.0077-0.05271a0.33076 0.33076 0 0 0-0.0078-0.03152l-0.01188-0.05064a0.33076 0.33076 0 0 0-0.0098-0.03152l-0.01757-0.04858a0.33076 0.33076 0 0 0-0.01344-0.03153l-0.0217-0.04444a0.33076 0.33076 0 0 0-0.0155-0.02946l-0.02739-0.04289a0.33076 0.33076 0 0 0-0.01757-0.02739l-0.02946-0.04134a0.33076 0.33076 0 0 0-0.02119-0.02325l-0.03307-0.03721a0.33076 0.33076 0 0 0-0.02377-0.02325l-0.03721-0.03307a0.33076 0.33076 0 0 0-0.02325-0.0217l-0.04082-0.02946a0.33076 0.33076 0 0 0-0.02739-0.01757l-0.04289-0.02739a0.33076 0.33076 0 0 0-0.02739-0.0155l-0.04703-0.02119a0.33076 0.33076 0 0 0-0.02946-0.01395l-0.04858-0.01757a0.33076 0.33076 0 0 0-0.03152-0.0098l-0.05064-0.01137a0.33076 0.33076 0 0 0-0.03307-0.0083l-0.05271-0.0077a0.33076 0.33076 0 0 0-0.03307-0.0016l-0.05478-0.0041a0.33076 0.33076 0 0 0-0.0155 0h-2.3735l-0.02894-0.0021-0.01964-0.0021-0.01964-0.0057-0.01757-0.0057-0.01757-0.0078-0.0155-0.0098-0.0155-0.01189-0.01395-0.01344-0.01344-0.01395-0.01189-0.0155-0.0098-0.0155-0.0078-0.01757-0.0057-0.01757-0.0062-0.01964-0.0016-0.01964-0.0021-0.02946v-0.45424zm4.3667 0v1.9844h0.66146v-1.9844z" color="#000000" fill="url(#d)" style="paint-order:stroke fill markers"/>
</svg>
